<svg width="215" height="204" viewBox="0 0 215 204" fill="none" xmlns="http://www.w3.org/2000/svg">
<path fill-rule="evenodd" clip-rule="evenodd" d="M0.968806 5.65623C1.65563 3.70185 3.09053 2.10027 4.95798 1.20366C6.82543 0.307048 8.97254 0.188822 10.9271 0.874977L14.0626 1.97914C20.4896 4.23956 25.9376 6.15623 30.2396 8.26039C34.823 10.5208 38.7605 13.2916 41.7188 17.625C44.6563 21.9166 45.8751 26.6354 46.4271 31.8125L46.5417 32.9375H165.833C174.365 32.9375 183.052 32.9375 190.208 33.7396C193.854 34.1458 197.469 34.7916 200.656 35.9166C203.781 37.0104 207.229 38.8125 209.677 42C213.656 47.1666 214.354 53.1875 213.979 59.2916C213.615 65.1041 212.177 72.3333 210.458 80.9271L210.354 81.4791L210.333 81.5208L205.042 107.25C203.479 114.812 202.167 121.177 200.469 126.208C198.677 131.521 196.198 136.208 191.75 139.833C187.302 143.448 182.208 144.937 176.635 145.625C171.375 146.271 164.865 146.271 157.156 146.271H100.833C86.823 146.271 75.4688 146.271 66.5313 145C57.1876 143.677 49.3438 140.833 43.1667 134.312C37.4688 128.312 34.4271 121.937 32.9063 113.042C31.4792 104.708 31.3438 93.7916 31.3438 78.6666V50.3125C31.3438 42.6041 31.323 37.4479 30.8959 33.4896C30.4792 29.7083 29.7605 27.8125 28.8126 26.4375C27.9063 25.0937 26.5209 23.8333 23.3542 22.2916C19.9896 20.6458 15.4167 19.0208 8.45839 16.5729L5.75006 15.625C4.78021 15.286 3.88674 14.7591 3.12081 14.0743C2.35488 13.3896 1.73153 12.5605 1.28645 11.6345C0.841364 10.7085 0.583288 9.70388 0.526995 8.67804C0.470702 7.6522 0.627715 6.62533 0.968806 5.65623ZM46.9584 48.5625V78.6666C46.9584 94.1771 47.1459 103.646 48.3126 110.406C49.3646 116.604 51.1667 120.042 54.5001 123.562C57.3438 126.562 61.2709 128.479 68.7188 129.531C76.4271 130.625 86.6771 130.646 101.427 130.646H156.677C165 130.646 170.531 130.635 174.74 130.125C178.719 129.635 180.573 128.781 181.875 127.719C183.177 126.656 184.375 125.01 185.667 121.208C187.021 117.198 188.146 111.781 189.833 103.625L195.021 78.4166V78.3958C196.875 69.125 198.094 62.9583 198.375 58.3333C198.646 53.9479 197.958 52.4062 197.323 51.5625C196.767 51.1539 196.142 50.8471 195.479 50.6562C193.203 49.9394 190.856 49.4714 188.479 49.2604C182.281 48.5729 174.427 48.5625 165.51 48.5625H46.9584ZM42.1876 180.125C42.1876 186.341 44.6569 192.302 49.0522 196.698C53.4476 201.093 59.409 203.562 65.6251 203.562C71.8411 203.562 77.8025 201.093 82.1979 196.698C86.5933 192.302 89.0626 186.341 89.0626 180.125C89.0626 173.909 86.5933 167.948 82.1979 163.552C77.8025 159.157 71.8411 156.687 65.6251 156.687C59.409 156.687 53.4476 159.157 49.0522 163.552C44.6569 167.948 42.1876 173.909 42.1876 180.125ZM65.6251 187.937C63.5531 187.937 61.5659 187.114 60.1008 185.649C58.6357 184.184 57.8126 182.197 57.8126 180.125C57.8126 178.053 58.6357 176.066 60.1008 174.601C61.5659 173.136 63.5531 172.312 65.6251 172.312C67.6971 172.312 69.6842 173.136 71.1493 174.601C72.6145 176.066 73.4376 178.053 73.4376 180.125C73.4376 182.197 72.6145 184.184 71.1493 185.649C69.6842 187.114 67.6971 187.937 65.6251 187.937ZM135.938 180.125C135.938 183.203 136.544 186.251 137.722 189.094C138.899 191.938 140.626 194.521 142.802 196.698C144.979 198.874 147.562 200.601 150.406 201.778C153.249 202.956 156.297 203.562 159.375 203.562C162.453 203.562 165.501 202.956 168.344 201.778C171.188 200.601 173.771 198.874 175.948 196.698C178.124 194.521 179.851 191.938 181.028 189.094C182.206 186.251 182.813 183.203 182.813 180.125C182.813 173.909 180.343 167.948 175.948 163.552C171.552 159.157 165.591 156.687 159.375 156.687C153.159 156.687 147.198 159.157 142.802 163.552C138.407 167.948 135.938 173.909 135.938 180.125ZM159.375 187.937C157.303 187.937 155.316 187.114 153.851 185.649C152.386 184.184 151.563 182.197 151.563 180.125C151.563 178.053 152.386 176.066 153.851 174.601C155.316 173.136 157.303 172.312 159.375 172.312C161.447 172.312 163.434 173.136 164.899 174.601C166.364 176.066 167.188 178.053 167.188 180.125C167.188 182.197 166.364 184.184 164.899 185.649C163.434 187.114 161.447 187.937 159.375 187.937Z" fill="black"/>
</svg>
