<svg width="26" height="31" viewBox="0 0 26 31" fill="none" xmlns="http://www.w3.org/2000/svg">
<path d="M25.0986 11.5001C25.0986 5.39985 19.6532 0.5 12.9985 0.5C6.34386 0.5 0.898438 5.44902 0.898438 11.5001C0.898438 15.7007 3.70302 19.4002 7.49904 21.2506L6.39794 30.5L12.9985 26.5001L19.5991 30.5L18.4995 21.2493C22.3481 19.4002 25.0986 15.6994 25.0986 11.5001ZM12.9985 21.4992C11.5538 21.4997 10.123 21.2414 8.78813 20.739C7.45322 20.2367 6.2403 19.5001 5.21869 18.5713C4.19708 17.6426 3.38681 16.5399 2.83419 15.3264C2.28158 14.1128 1.99744 12.8122 1.99804 11.4987C1.99804 5.94884 6.94774 1.49827 12.9985 1.49827C19.0493 1.49827 23.999 5.998 23.999 11.4987C24.0042 12.8133 23.7232 14.1158 23.1722 15.3313C22.6212 16.5467 21.8111 17.651 20.7886 18.5806C19.7661 19.5101 18.5513 20.2466 17.2143 20.7475C15.8774 21.2484 14.4446 21.5039 12.9985 21.4992ZM17.9482 7.39913L19.5976 8.89858L12.1723 15.6489L8.04884 11.8989L9.69824 10.3994L12.1738 12.6499L17.9482 7.39913Z" fill="black"/>
</svg>
