<svg width="24" height="22" viewBox="0 0 24 22" fill="none" xmlns="http://www.w3.org/2000/svg">
<g clip-path="url(#clip0_304_12)">
<path d="M20 15.8125C20.3852 15.8127 20.7556 15.9425 21.0344 16.1751C21.3132 16.4077 21.479 16.7253 21.4975 17.0619C21.516 17.3986 21.3858 17.7286 21.1338 17.9836C20.8818 18.2385 20.5274 18.3988 20.144 18.4314L20 18.4375H4C3.61478 18.4373 3.24441 18.3075 2.96561 18.0749C2.68682 17.8423 2.52099 17.5247 2.50248 17.1881C2.48396 16.8514 2.61419 16.5214 2.86618 16.2664C3.11816 16.0115 3.47258 15.8512 3.856 15.8186L4 15.8125H20ZM20 9.6875C20.3978 9.6875 20.7794 9.82578 21.0607 10.0719C21.342 10.3181 21.5 10.6519 21.5 11C21.5 11.3481 21.342 11.6819 21.0607 11.9281C20.7794 12.1742 20.3978 12.3125 20 12.3125H4C3.60218 12.3125 3.22064 12.1742 2.93934 11.9281C2.65804 11.6819 2.5 11.3481 2.5 11C2.5 10.6519 2.65804 10.3181 2.93934 10.0719C3.22064 9.82578 3.60218 9.6875 4 9.6875H20ZM20 3.5625C20.3978 3.5625 20.7794 3.70078 21.0607 3.94692C21.342 4.19306 21.5 4.5269 21.5 4.875C21.5 5.2231 21.342 5.55694 21.0607 5.80308C20.7794 6.04922 20.3978 6.1875 20 6.1875H4C3.60218 6.1875 3.22064 6.04922 2.93934 5.80308C2.65804 5.55694 2.5 5.2231 2.5 4.875C2.5 4.5269 2.65804 4.19306 2.93934 3.94692C3.22064 3.70078 3.60218 3.5625 4 3.5625H20Z" fill="white"/>
</g>
<defs>
<clipPath id="clip0_304_12">
<rect width="24" height="21" fill="white" transform="translate(0 0.5)"/>
</clipPath>
</defs>
</svg>
