<svg width="70" height="72" viewBox="0 0 70 72" fill="none" xmlns="http://www.w3.org/2000/svg">
<path d="M53.42 14.8567L42.8233 0L3.86 31.1267L1.7 31.1033V31.1367H0V71.1367H70V31.1367H66.7933L60.4133 12.4733L53.42 14.8567ZM59.75 31.1367H26.3233L51.22 22.65L56.2933 21.0267L59.75 31.1367ZM46.8333 17.1033L21.1333 25.8633L41.4867 9.60333L46.8333 17.1033ZM6.66667 58.3667V43.9C8.07298 43.4017 9.35036 42.5957 10.4057 41.541C11.4609 40.4863 12.2676 39.2094 12.7667 37.8033H57.2333C57.7322 39.2099 58.5387 40.4874 59.594 41.5426C60.6493 42.5979 61.9268 43.4044 63.3333 43.9033V58.37C61.9268 58.8689 60.6493 59.6754 59.594 60.7307C58.5387 61.786 57.7322 63.0634 57.2333 64.47H12.7733C12.2739 63.0623 11.4665 61.7838 10.4101 60.7279C9.35358 59.672 8.07467 58.8653 6.66667 58.3667Z" fill="black"/>
</svg>
