<svg width="109" height="158" viewBox="0 0 109 158" fill="none" xmlns="http://www.w3.org/2000/svg">
<path d="M80 138C82.6522 138 85.1957 139.054 87.0711 140.929C88.9464 142.804 90 145.348 90 148C90 150.652 88.9464 153.196 87.0711 155.071C85.1957 156.946 82.6522 158 80 158C77.3478 158 74.8043 156.946 72.9289 155.071C71.0536 153.196 70 150.652 70 148C70 142.45 74.45 138 80 138ZM0 58H16.35L21.05 68H95C96.3261 68 97.5979 68.5268 98.5355 69.4645C99.4732 70.4021 100 71.6739 100 73C100 73.85 99.75 74.7 99.4 75.5L81.5 107.85C79.8 110.9 76.5 113 72.75 113H35.5L31 121.15L30.85 121.75C30.85 122.082 30.9817 122.399 31.2161 122.634C31.4505 122.868 31.7685 123 32.1 123H90V133H30C27.3478 133 24.8043 131.946 22.9289 130.071C21.0536 128.196 20 125.652 20 123C20 121.25 20.45 119.6 21.2 118.2L28 105.95L10 68H0V58ZM30 138C32.6522 138 35.1957 139.054 37.0711 140.929C38.9464 142.804 40 145.348 40 148C40 150.652 38.9464 153.196 37.0711 155.071C35.1957 156.946 32.6522 158 30 158C27.3478 158 24.8043 156.946 22.9289 155.071C21.0536 153.196 20 150.652 20 148C20 142.45 24.45 138 30 138ZM75 103L88.9 78H25.7L37.5 103H75Z" fill="white"/>
<path opacity="0.5" d="M42.4531 23.3832L32.9491 35.111C23.9903 46.1661 19.5109 51.6937 20.1538 57.9078C20.5913 62.1871 23.3451 65.6349 28.6152 70.2884C29.6618 71.2092 30.1868 71.6734 30.7101 71.7632C31.2357 71.85 32.3408 71.413 34.5499 70.5286C35.7938 70.0301 37.1482 69.8728 38.4733 70.0729C39.7983 70.2731 41.0459 70.8235 42.087 71.6672C43.1282 72.5109 43.9251 73.6173 44.3955 74.8722C44.8659 76.127 44.9927 77.4846 44.7627 78.8048C44.3581 81.1516 44.1544 82.3238 44.3506 82.8171C44.5468 83.3104 45.1068 83.7255 46.2268 84.5556C51.872 88.7524 55.818 90.7291 60.0926 90.2733C66.3027 89.6175 70.7821 84.0899 79.7433 73.0319L89.2472 61.3041C98.206 50.249 102.685 44.7214 102.043 38.5073C101.605 34.2281 98.8512 30.7803 93.5811 26.1267C92.5345 25.2059 92.0095 24.7417 91.4862 24.652C90.9606 24.5652 89.8585 25.0045 87.6465 25.8865C86.4026 26.385 85.0481 26.5423 83.723 26.3422C82.398 26.142 81.1504 25.5916 80.1093 24.7479C79.0682 23.9042 78.2712 22.7978 77.8008 21.543C77.3304 20.2881 77.2037 18.9305 77.4336 17.6103C77.8411 15.2659 78.0419 14.0913 77.8458 13.598C77.6496 13.1047 77.0895 12.6896 75.9666 11.8572C70.3243 7.66275 66.3813 5.68842 62.1038 6.14181C55.8936 6.79763 51.4142 12.3252 42.4531 23.3832Z" fill="white" stroke="white" stroke-width="1.5"/>
<path d="M62.7622 64.0922L59.4347 32.324L62.7622 64.0922Z" fill="white"/>
<path d="M62.7622 64.0922L59.4347 32.324" stroke="white" stroke-width="1.5" stroke-linecap="round"/>
<path d="M76.7051 43.8963C77.4807 44.5249 77.9749 45.4359 78.0789 46.4288C78.1829 47.4218 77.8882 48.4154 77.2597 49.191C76.6311 49.9667 75.7201 50.4609 74.7272 50.5649C73.7342 50.6689 72.7406 50.3742 71.965 49.7456C71.1893 49.117 70.6951 48.2061 70.5911 47.2131C70.4871 46.2202 70.7818 45.2266 71.4104 44.4509C72.039 43.6752 72.9499 43.1811 73.9429 43.0771C74.9358 42.973 75.9294 43.2677 76.7051 43.8963ZM50.2316 46.6692C51.0073 47.2978 51.5015 48.2088 51.6055 49.2017C51.7095 50.1947 51.4148 51.1883 50.7862 51.9639C50.1576 52.7396 49.2467 53.2338 48.2537 53.3378C47.2608 53.4418 46.2672 53.1471 45.4915 52.5185C44.7159 51.8899 44.2217 50.979 44.1177 49.986C44.0137 48.9931 44.3084 47.9995 44.9369 47.2238C45.5655 46.4481 46.4765 45.954 47.4694 45.8499C48.4624 45.7459 49.456 46.0406 50.2316 46.6692Z" fill="white"/>
</svg>
