<svg width="20" height="16" viewBox="0 0 20 16" fill="none" xmlns="http://www.w3.org/2000/svg">
<path d="M17.8837 12.8125C18.2666 12.8127 18.6349 12.9425 18.912 13.1751C19.1892 13.4077 19.3541 13.7253 19.3725 14.0619C19.3909 14.3986 19.2614 14.7286 19.0109 14.9836C18.7604 15.2385 18.408 15.3988 18.0268 15.4314L17.8837 15.4375H1.97664C1.59366 15.4373 1.22543 15.3075 0.948259 15.0749C0.671087 14.8423 0.506218 14.5247 0.487813 14.1881C0.469408 13.8514 0.59888 13.5214 0.849399 13.2664C1.09992 13.0115 1.45228 12.8512 1.83347 12.8186L1.97664 12.8125H17.8837ZM17.8837 6.6875C18.2792 6.6875 18.6585 6.82578 18.9382 7.07192C19.2178 7.31806 19.3749 7.6519 19.3749 8C19.3749 8.3481 19.2178 8.68194 18.9382 8.92808C18.6585 9.17422 18.2792 9.3125 17.8837 9.3125H1.97664C1.58112 9.3125 1.20181 9.17422 0.922139 8.92808C0.642469 8.68194 0.485352 8.3481 0.485352 8C0.485352 7.6519 0.642469 7.31806 0.922139 7.07192C1.20181 6.82578 1.58112 6.6875 1.97664 6.6875H17.8837ZM17.8837 0.5625C18.2792 0.5625 18.6585 0.700781 18.9382 0.946922C19.2178 1.19306 19.3749 1.5269 19.3749 1.875C19.3749 2.2231 19.2178 2.55694 18.9382 2.80308C18.6585 3.04922 18.2792 3.1875 17.8837 3.1875H1.97664C1.58112 3.1875 1.20181 3.04922 0.922139 2.80308C0.642469 2.55694 0.485352 2.2231 0.485352 1.875C0.485352 1.5269 0.642469 1.19306 0.922139 0.946922C1.20181 0.700781 1.58112 0.5625 1.97664 0.5625H17.8837Z" fill="black"/>
</svg>
