<svg width="71" height="58" viewBox="0 0 71 58" fill="none" xmlns="http://www.w3.org/2000/svg">
<g clip-path="url(#clip0_407_263)">
<g clip-path="url(#clip1_407_263)">
<path fill-rule="evenodd" clip-rule="evenodd" d="M66.77 48.2345H59.374C58.533 44.9565 55.561 42.5215 52.024 42.5215C50.447 42.5215 48.982 43.0055 47.766 43.8315V34.0045H66.87V48.1345C66.87 48.1895 66.825 48.2345 66.77 48.2345ZM52.024 53.9135C49.93 53.9135 48.228 52.2115 48.228 50.1185C48.228 48.0245 49.93 46.3225 52.024 46.3225C54.117 46.3225 55.819 48.0245 55.819 50.1185C55.819 52.2115 54.117 53.9135 52.024 53.9135ZM53.636 17.8635C54.599 17.8635 55.491 18.2985 56.082 19.0585L64.736 30.2035H47.766V17.8635H53.636ZM18.067 53.9135C15.974 53.9135 14.271 52.2115 14.271 50.1185C14.271 48.0245 15.974 46.3225 18.067 46.3225C20.16 46.3225 21.862 48.0245 21.862 50.1185C21.862 52.2115 20.16 53.9135 18.067 53.9135ZM69.847 30.5555L59.082 16.7245C57.765 15.0335 55.781 14.0625 53.636 14.0625H47.766V3.90049C47.766 1.75049 46.016 0.000488281 43.866 0.000488281H35.816C34.767 0.000488281 33.916 0.850488 33.916 1.90049C33.916 2.95049 34.767 3.80049 35.816 3.80049H43.866C43.92 3.80049 43.965 3.84549 43.965 3.90049V48.2345H25.416C24.575 44.9565 21.603 42.5215 18.067 42.5215C14.53 42.5215 11.559 44.9565 10.717 48.2345H3.9C3.845 48.2345 3.8 48.1895 3.8 48.1345V33.6345C3.8 32.5855 2.949 31.7345 1.9 31.7345C0.851 31.7345 0 32.5855 0 33.6345V48.1345C0 50.2855 1.749 52.0355 3.9 52.0355H10.726C11.579 55.2965 14.541 57.7135 18.067 57.7135C21.592 57.7135 24.555 55.2965 25.408 52.0355H44.682C45.535 55.2965 48.499 57.7135 52.024 57.7135C55.549 57.7135 58.512 55.2965 59.365 52.0355H66.77C68.92 52.0355 70.67 50.2855 70.67 48.1345V32.9515C70.67 32.0875 70.377 31.2355 69.847 30.5555Z" fill="black"/>
<mask id="mask0_407_263" style="mask-type:luminance" maskUnits="userSpaceOnUse" x="0" y="0" width="28" height="4">
<path d="M0.000488281 0H27.2635V3.8009H0.000488281V0Z" fill="white"/>
</mask>
<g mask="url(#mask0_407_263)">
<path fill-rule="evenodd" clip-rule="evenodd" d="M25.3635 3.801H1.90049C0.850488 3.801 0.000488281 2.95 0.000488281 1.901C0.000488281 0.851 0.850488 0 1.90049 0H25.3635C26.4125 0 27.2635 0.851 27.2635 1.901C27.2635 2.95 26.4125 3.801 25.3635 3.801Z" fill="black"/>
</g>
<path fill-rule="evenodd" clip-rule="evenodd" d="M22.3635 15.0509H1.90049C0.850488 15.0509 0.000488281 14.1999 0.000488281 13.1509C0.000488281 12.1009 0.850488 11.2499 1.90049 11.2499H22.3635C23.4125 11.2499 24.2635 12.1009 24.2635 13.1509C24.2635 14.1999 23.4125 15.0509 22.3635 15.0509Z" fill="black"/>
<path fill-rule="evenodd" clip-rule="evenodd" d="M18.3635 26.3009H1.90049C0.850488 26.3009 0.000488281 25.4499 0.000488281 24.4009C0.000488281 23.3509 0.850488 22.4999 1.90049 22.4999H18.3635C19.4125 22.4999 20.2635 23.3509 20.2635 24.4009C20.2635 25.4499 19.4125 26.3009 18.3635 26.3009Z" fill="black"/>
</g>
</g>
<defs>
<clipPath id="clip0_407_263">
<rect width="70.67" height="57.7135" fill="white"/>
</clipPath>
<clipPath id="clip1_407_263">
<rect width="70.67" height="57.7135" fill="white"/>
</clipPath>
</defs>
</svg>
