<svg width="81" height="80" viewBox="0 0 81 80" fill="none" xmlns="http://www.w3.org/2000/svg">
<path d="M31.2236 22.3038C34.3033 22.3038 36.7894 24.6739 36.7894 27.61C36.7894 30.5461 34.3033 32.9162 31.2236 32.9162C28.1438 32.9162 25.6577 30.5461 25.6577 27.61C25.6577 24.6739 28.1438 22.3038 31.2236 22.3038ZM49.7764 47.0661C52.8562 47.0661 55.3423 49.4362 55.3423 52.3723C55.3423 55.3084 52.8562 57.6785 49.7764 57.6785C46.6967 57.6785 44.2106 55.3084 44.2106 52.3723C44.2106 49.4362 46.6967 47.0661 49.7764 47.0661ZM27.179 57.6785L21.9471 52.6907L53.821 22.3038L59.0529 27.2916L27.179 57.6785ZM65.1753 7.62326L67.4388 21.2779L80.4629 27.61L73.8952 39.9912L80.5 52.3723L67.3646 58.7044L65.1011 72.3591L50.667 70.2012L40.3887 80L30.0733 70.0597L15.7505 72.3237L13.4499 58.5629L0.5 52.2662L7.10482 39.885L0.537106 27.61L13.5612 21.2072L15.8247 7.69401L30.1846 9.92262L40.5 0L50.7412 9.78112L65.1753 7.62326ZM70.5557 30.6876L60.9082 25.8413L59.0529 15.618L48.2922 17.1037L40.5 9.92262L32.7078 17.1037L21.9471 15.618L20.0918 25.8413L10.4443 30.6876L15.2681 39.9912L10.4443 49.2947L20.0918 54.1411L21.9471 64.3644L32.7078 62.8786L40.5 70.0597L48.2922 62.8786L59.0529 64.3644L60.9082 54.1411L70.5557 49.2947L65.7319 39.9912L70.5557 30.6876Z" fill="black"/>
</svg>
