<svg width="107" height="82" viewBox="0 0 107 82" fill="none" xmlns="http://www.w3.org/2000/svg">
<path fill-rule="evenodd" clip-rule="evenodd" d="M52.1405 16C48.7965 16 46.6445 18.368 46.6445 20.64C46.6445 21.4356 46.3284 22.1987 45.7658 22.7613C45.2032 23.3239 44.4401 23.64 43.6445 23.64C42.8488 23.64 42.0858 23.3239 41.5231 22.7613C40.9605 22.1987 40.6445 21.4356 40.6445 20.64C40.6445 14.468 46.1005 10 52.1405 10C58.1805 10 63.6365 14.468 63.6365 20.64C63.6365 23.36 62.6445 25.896 60.8765 27.816C60.3165 28.428 59.7005 29.036 59.1365 29.596L58.8405 29.884C58.2267 30.4776 57.6381 31.0968 57.0765 31.74C56.7772 32.0852 56.5032 32.4515 56.2565 32.836C58.5652 33.2691 60.7618 34.1673 62.7125 35.476L92.4445 55.516C96.2445 58.076 97.2725 62.304 95.9525 65.868C94.6525 69.372 91.1885 72 86.6885 72H20.3085C15.8605 72 12.4125 69.42 11.0845 65.96C9.73247 62.44 10.6845 58.236 14.3965 55.628L42.7765 35.66C44.8966 34.1798 47.3212 33.193 49.8725 32.772C50.2925 30.744 51.4445 29.1 52.5045 27.852C53.1925 27.044 53.9445 26.288 54.6205 25.62L54.9405 25.3C55.5125 24.74 56.0085 24.248 56.4605 23.756C57.1885 22.964 57.6365 21.884 57.6365 20.636C57.6365 18.368 55.4845 16 52.1405 16ZM59.3605 40.448C57.3996 39.1506 55.0913 38.4783 52.7405 38.52C50.4131 38.5316 48.1435 39.2454 46.2285 40.568L17.8485 60.532C16.4645 61.504 16.2845 62.764 16.6885 63.808C17.1085 64.908 18.3005 66 20.3085 66H86.6885C88.7245 66 89.9125 64.892 90.3285 63.78C90.7165 62.724 90.5165 61.452 89.0885 60.492L59.3605 40.448Z" fill="black"/>
</svg>
