<svg width="16" height="18" viewBox="0 0 16 18" fill="none" xmlns="http://www.w3.org/2000/svg">
<path d="M11.0001 16.88C11.0401 17.18 10.9401 17.5 10.7101 17.71C10.6176 17.8027 10.5077 17.8762 10.3868 17.9264C10.2658 17.9766 10.1361 18.0024 10.0051 18.0024C9.87416 18.0024 9.74448 17.9766 9.62351 17.9264C9.50253 17.8762 9.39264 17.8027 9.30013 17.71L5.29013 13.7C5.18113 13.5933 5.09824 13.4629 5.04794 13.319C4.99763 13.175 4.98127 13.0213 5.00013 12.87V7.75L0.210131 1.62C0.0477393 1.41153 -0.0255351 1.14726 0.00631899 0.88493C0.0381731 0.622602 0.172566 0.383546 0.380131 0.22C0.570131 0.08 0.780131 0 1.00013 0H15.0001C15.2201 0 15.4301 0.08 15.6201 0.22C15.8277 0.383546 15.9621 0.622602 15.9939 0.88493C16.0258 1.14726 15.9525 1.41153 15.7901 1.62L11.0001 7.75V16.88ZM3.04013 2L7.00013 7.06V12.58L9.00013 14.58V7.05L12.9601 2H3.04013Z" fill="black"/>
</svg>
