<svg width="27" height="27" viewBox="0 0 27 27" fill="none" xmlns="http://www.w3.org/2000/svg">
<path d="M13.4999 19.0556C14.9733 19.0556 16.3864 18.4703 17.4283 17.4284C18.4701 16.3865 19.0554 14.9734 19.0554 13.5C19.0554 12.0266 18.4701 10.6135 17.4283 9.57164C16.3864 8.52977 14.9733 7.94446 13.4999 7.94446C12.0265 7.94446 10.6134 8.52977 9.57152 9.57164C8.52965 10.6135 7.94434 12.0266 7.94434 13.5C7.94434 14.9734 8.52965 16.3865 9.57152 17.4284C10.6134 18.4703 12.0265 19.0556 13.4999 19.0556Z" stroke="black" stroke-width="1.5" stroke-linecap="round" stroke-linejoin="round"/>
<path d="M1 19.0556V7.94444C1 6.10266 1.73164 4.33632 3.03398 3.03398C4.33632 1.73164 6.10266 1 7.94444 1H19.0556C20.8973 1 22.6637 1.73164 23.966 3.03398C25.2684 4.33632 26 6.10266 26 7.94444V19.0556C26 20.8973 25.2684 22.6637 23.966 23.966C22.6637 25.2684 20.8973 26 19.0556 26H7.94444C6.10266 26 4.33632 25.2684 3.03398 23.966C1.73164 22.6637 1 20.8973 1 19.0556Z" stroke="black" stroke-width="1.5"/>
<path d="M21.1387 5.87499L21.1526 5.85971" stroke="black" stroke-width="1.5" stroke-linecap="round" stroke-linejoin="round"/>
</svg>
