<svg width="150" height="150" viewBox="0 0 150 150" fill="none" xmlns="http://www.w3.org/2000/svg">
<path d="M68.5626 51.6563C67.2532 52.5564 66.2035 53.785 65.5188 55.2188C64.9379 56.2853 63.9657 57.0847 62.807 57.4487C61.6484 57.8126 60.3937 57.7126 59.3073 57.1698C58.2209 56.627 57.3875 55.6837 56.9828 54.5387C56.5781 53.3936 56.6336 52.1362 57.1376 51.0312C58.3876 48.5187 60.3438 45.8688 63.3688 43.8563C66.4188 41.8125 70.2751 40.625 75.0001 40.625C79.1126 40.625 83.5563 41.8437 87.0876 44.4937C89.0563 45.9329 90.6528 47.8214 91.7443 50.0021C92.8357 52.1829 93.3905 54.5928 93.3626 57.0312C93.3626 63.4875 90.1563 67.7812 86.9438 70.875C85.7563 72.0188 84.4501 73.1125 83.3251 74.05L82.4063 74.8187C81.4423 75.6072 80.5339 76.4614 79.6876 77.375V85.9375C79.6876 87.1807 79.1937 88.373 78.3146 89.2521C77.4355 90.1311 76.2433 90.625 75.0001 90.625C73.7569 90.625 72.5646 90.1311 71.6855 89.2521C70.8064 88.373 70.3126 87.1807 70.3126 85.9375V76.7313C70.3126 75.25 70.7313 73.5813 71.8563 72.1313C73.2313 70.3813 74.8938 68.9 76.3438 67.6687L77.4876 66.7125L77.4938 66.7063C78.5688 65.8125 79.5188 65.0187 80.4313 64.1312C82.7313 61.9125 83.9876 59.9062 83.9876 57.0312C84.0152 56.0484 83.799 55.074 83.3584 54.195C82.9179 53.316 82.2665 52.5598 81.4626 51.9938C79.7876 50.7375 77.4001 50 75.0001 50C71.9126 50 69.9126 50.7563 68.5626 51.6563ZM81.2501 106.25C81.2501 107.908 80.5916 109.497 79.4195 110.669C78.2474 111.842 76.6577 112.5 75.0001 112.5C73.3425 112.5 71.7527 111.842 70.5806 110.669C69.4085 109.497 68.7501 107.908 68.7501 106.25C68.7501 104.592 69.4085 103.003 70.5806 101.831C71.7527 100.658 73.3425 100 75.0001 100C76.6577 100 78.2474 100.658 79.4195 101.831C80.5916 103.003 81.2501 104.592 81.2501 106.25Z" fill="black"/>
<path d="M75 6.25C112.969 6.25 143.75 37.0313 143.75 75C143.75 112.969 112.969 143.75 75 143.75C37.0313 143.75 6.25 112.969 6.25 75C6.25 37.0313 37.0313 6.25 75 6.25ZM15.625 75C15.625 90.7472 21.8806 105.849 33.0155 116.984C44.1505 128.119 59.2528 134.375 75 134.375C90.7472 134.375 105.849 128.119 116.984 116.984C128.119 105.849 134.375 90.7472 134.375 75C134.375 59.2528 128.119 44.1505 116.984 33.0155C105.849 21.8806 90.7472 15.625 75 15.625C59.2528 15.625 44.1505 21.8806 33.0155 33.0155C21.8806 44.1505 15.625 59.2528 15.625 75Z" fill="black"/>
</svg>
