<svg width="12" height="17" viewBox="0 0 12 17" fill="none" xmlns="http://www.w3.org/2000/svg">
<g clip-path="url(#clip0_431_19)">
<path d="M10.0411 12.9339C10.252 13.1447 10.5774 12.8193 10.3666 12.613L8.6478 10.8897C9.2507 10.2226 9.58397 9.35512 9.5828 8.45595C9.5828 6.44387 7.94655 4.80762 5.93446 4.80762C3.92238 4.80762 2.28613 6.44387 2.28613 8.45595C2.28613 10.468 3.92238 12.1043 5.93446 12.1043C6.84197 12.1043 7.68071 11.7697 8.32238 11.2151L10.0411 12.9339ZM2.74401 8.45595C2.74401 6.69595 4.17859 5.26595 5.93401 5.26595C7.69401 5.26595 9.12401 6.69595 9.12401 8.45595C9.12401 10.2159 7.69401 11.6459 5.93401 11.6459C4.17859 11.6459 2.74401 10.2159 2.74401 8.45595Z" fill="black"/>
</g>
<defs>
<clipPath id="clip0_431_19">
<rect width="11" height="16" fill="white" transform="translate(0.860352 0.905029)"/>
</clipPath>
</defs>
</svg>
