<svg width="257" height="256" viewBox="0 0 257 256" fill="none" xmlns="http://www.w3.org/2000/svg">
<path d="M128.5 28C108.722 28 89.3879 33.8649 72.943 44.853C56.4981 55.8412 43.6809 71.459 36.1121 89.7317C28.5433 108.004 26.563 128.111 30.4215 147.509C34.28 166.907 43.8041 184.725 57.7894 198.711C71.7746 212.696 89.5929 222.22 108.991 226.079C128.389 229.937 148.496 227.957 166.768 220.388C185.041 212.819 200.659 200.002 211.647 183.557C222.635 167.112 228.5 147.778 228.5 128C228.471 101.487 217.926 76.0688 199.179 57.3215C180.431 38.5742 155.013 28.0291 128.5 28ZM128.5 220C110.304 220 92.5169 214.604 77.3876 204.495C62.2583 194.386 50.4664 180.018 43.5031 163.207C36.5399 146.396 34.718 127.898 38.2678 110.052C41.8176 92.2054 50.5798 75.8126 63.4462 62.9462C76.3127 50.0797 92.7055 41.3176 110.552 37.7678C128.398 34.2179 146.896 36.0398 163.707 43.0031C180.518 49.9663 194.886 61.7582 204.995 76.8875C215.104 92.0169 220.5 109.804 220.5 128C220.474 152.392 210.772 175.777 193.525 193.025C176.277 210.272 152.892 219.974 128.5 220ZM84.5 108C84.5 106.418 84.9692 104.871 85.8483 103.555C86.7273 102.24 87.9768 101.214 89.4386 100.609C90.9004 100.003 92.5089 99.845 94.0608 100.154C95.6126 100.462 97.0381 101.224 98.1569 102.343C99.2757 103.462 100.038 104.887 100.346 106.439C100.655 107.991 100.497 109.6 99.8911 111.061C99.2856 112.523 98.2602 113.773 96.9446 114.652C95.629 115.531 94.0823 116 92.5 116C90.3783 116 88.3435 115.157 86.8432 113.657C85.3429 112.157 84.5 110.122 84.5 108ZM172.5 108C172.5 109.582 172.031 111.129 171.152 112.445C170.273 113.76 169.023 114.786 167.562 115.391C166.1 115.997 164.491 116.155 162.939 115.846C161.387 115.538 159.962 114.776 158.843 113.657C157.724 112.538 156.962 111.113 156.654 109.561C156.345 108.009 156.504 106.4 157.109 104.939C157.715 103.477 158.74 102.227 160.055 101.348C161.371 100.469 162.918 100 164.5 100C166.622 100 168.657 100.843 170.157 102.343C171.657 103.843 172.5 105.878 172.5 108ZM171.96 174C172.49 174.918 172.633 176.008 172.359 177.032C172.086 178.056 171.417 178.929 170.5 179.46C169.894 179.816 169.203 180.002 168.5 180C167.799 179.999 167.11 179.814 166.502 179.463C165.895 179.112 165.391 178.607 165.04 178C156.83 163.81 143.85 156 128.5 156C113.15 156 100.17 163.81 91.96 178C91.4066 178.871 90.5381 179.494 89.536 179.739C88.534 179.985 87.4758 179.833 86.5826 179.317C85.6894 178.801 85.0302 177.959 84.7428 176.969C84.4553 175.978 84.5618 174.914 85.04 174C94.59 157.48 110.44 148 128.5 148C146.56 148 162.41 157.48 171.96 174Z" fill="black"/>
</svg>
