<svg width="29" height="21" viewBox="0 0 29 21" fill="none" xmlns="http://www.w3.org/2000/svg">
<path d="M28.057 7.80188L26.4164 3.70032C26.2772 3.35329 26.037 3.05605 25.727 2.84711C25.4169 2.63817 25.0512 2.52716 24.6773 2.52844H20.625V1.59094C20.625 1.3423 20.5262 1.10385 20.3504 0.92803C20.1746 0.752215 19.9361 0.653442 19.6875 0.653442H1.875C1.37772 0.653442 0.900805 0.850986 0.549175 1.20262C0.197544 1.55425 0 2.03116 0 2.52844V15.6534C0 16.1507 0.197544 16.6276 0.549175 16.9793C0.900805 17.3309 1.37772 17.5284 1.875 17.5284H3.86719C4.07372 18.3351 4.54284 19.05 5.2006 19.5606C5.85836 20.0712 6.66734 20.3483 7.5 20.3483C8.33266 20.3483 9.14164 20.0712 9.7994 19.5606C10.4572 19.05 10.9263 18.3351 11.1328 17.5284H16.9922C17.1987 18.3351 17.6678 19.05 18.3256 19.5606C18.9834 20.0712 19.7923 20.3483 20.625 20.3483C21.4577 20.3483 22.2666 20.0712 22.9244 19.5606C23.5822 19.05 24.0513 18.3351 24.2578 17.5284H26.25C26.7473 17.5284 27.2242 17.3309 27.5758 16.9793C27.9275 16.6276 28.125 16.1507 28.125 15.6534V8.15344C28.1253 8.03296 28.1022 7.91356 28.057 7.80188ZM20.625 4.40344H24.6773L25.8023 7.21594H20.625V4.40344ZM1.875 2.52844H18.75V10.0284H1.875V2.52844ZM7.5 18.4659C7.12916 18.4659 6.76665 18.356 6.45831 18.1499C6.14996 17.9439 5.90964 17.6511 5.76773 17.3085C5.62581 16.9659 5.58868 16.5889 5.66103 16.2251C5.73337 15.8614 5.91195 15.5273 6.17418 15.2651C6.4364 15.0029 6.77049 14.8243 7.13421 14.752C7.49792 14.6796 7.87492 14.7168 8.21753 14.8587C8.56014 15.0006 8.85298 15.2409 9.05901 15.5492C9.26503 15.8576 9.375 16.2201 9.375 16.5909C9.375 17.0882 9.17746 17.5651 8.82582 17.9168C8.47419 18.2684 7.99728 18.4659 7.5 18.4659ZM16.9922 15.6534H11.1328C10.9263 14.8468 10.4572 14.1318 9.7994 13.6213C9.14164 13.1107 8.33266 12.8336 7.5 12.8336C6.66734 12.8336 5.85836 13.1107 5.2006 13.6213C4.54284 14.1318 4.07372 14.8468 3.86719 15.6534H1.875V11.9034H18.75V13.346C18.3189 13.5952 17.9416 13.9275 17.6398 14.3235C17.3381 14.7196 17.1179 15.1717 16.9922 15.6534ZM20.625 18.4659C20.2542 18.4659 19.8916 18.356 19.5833 18.1499C19.275 17.9439 19.0346 17.6511 18.8927 17.3085C18.7508 16.9659 18.7137 16.5889 18.786 16.2251C18.8584 15.8614 19.037 15.5273 19.2992 15.2651C19.5614 15.0029 19.8955 14.8243 20.2592 14.752C20.6229 14.6796 20.9999 14.7168 21.3425 14.8587C21.6851 15.0006 21.978 15.2409 22.184 15.5492C22.39 15.8576 22.5 16.2201 22.5 16.5909C22.5 17.0882 22.3025 17.5651 21.9508 17.9168C21.5992 18.2684 21.1223 18.4659 20.625 18.4659ZM26.25 15.6534H24.2578C24.0488 14.8488 23.5788 14.1361 22.9214 13.6272C22.264 13.1183 21.4564 12.8417 20.625 12.8409V9.09094H26.25V15.6534Z" fill="black" fill-opacity="0.7"/>
</svg>
