<svg width="26" height="25" viewBox="0 0 26 25" fill="none" xmlns="http://www.w3.org/2000/svg">
<path d="M0.125002 10.1632C0.12342 7.865 0.90138 5.63416 2.33175 3.83527C3.76213 2.03638 5.76034 0.775813 7.99986 0.259559C10.2394 -0.256695 12.5878 0.00188828 14.6613 0.993054C16.7349 1.98422 18.4109 3.64936 19.4156 5.71638C20.8699 6.42534 22.1338 7.47149 23.102 8.7677C24.0702 10.0639 24.7148 11.5727 24.982 13.1684C25.2492 14.7641 25.1313 16.4005 24.6381 17.9414C24.1449 19.4823 23.2908 20.8831 22.1467 22.0272C21.0027 23.1712 19.6019 24.0254 18.061 24.5185C16.5201 25.0117 14.8836 25.1296 13.2879 24.8624C11.6923 24.5952 10.1835 23.9507 8.88727 22.9825C7.59105 22.0142 6.5449 20.7504 5.83594 19.2961C4.12343 18.4624 2.67984 17.164 1.67001 15.5491C0.66018 13.9342 0.124801 12.0679 0.125002 10.1632ZM8.1625 20.0976C8.90843 21.065 9.85202 21.8623 10.9304 22.4362C12.0087 23.0101 13.197 23.3476 14.4161 23.4261C15.6351 23.5045 16.8569 23.3222 17.9999 22.8912C19.143 22.4602 20.181 21.7905 21.0447 20.9267C21.9085 20.063 22.5782 19.025 23.0092 17.8819C23.4402 16.7389 23.6225 15.5171 23.5441 14.2981C23.4656 13.079 23.1281 11.8907 22.5542 10.8124C21.9803 9.73402 21.183 8.79043 20.2156 8.0445C20.5694 9.70144 20.5031 11.4206 20.0226 13.0453C19.5422 14.67 18.6629 16.1488 17.4648 17.3468C16.2668 18.5449 14.788 19.4242 13.1633 19.9046C11.5386 20.3851 9.81944 20.4514 8.1625 20.0976ZM7.01719 18.1148C7.58594 18.3502 8.18177 18.5221 8.80469 18.6304L6.50156 16.3273C6.6099 16.9492 6.78177 17.545 7.01719 18.1148ZM11.1016 18.7179C11.7244 18.659 12.339 18.5322 12.9344 18.3398L6.95938 12.3664C6.74932 12.9324 6.59443 13.5174 6.49688 14.1133L11.1016 18.7179ZM14.4719 17.6679C14.9365 17.4075 15.3729 17.1075 15.7813 16.7679L8.59063 9.57888C8.24905 9.98245 7.94223 10.4142 7.67344 10.8695L14.4719 17.6679ZM16.8859 15.6617C17.2245 15.2554 17.5245 14.8195 17.7859 14.3539L10.9891 7.55388C10.5332 7.82259 10.101 8.12941 9.69688 8.47106L16.8844 15.6617H16.8859ZM18.4578 12.8148C18.6484 12.2294 18.7745 11.619 18.8359 10.9836L14.2313 6.37888C13.6271 6.47888 13.0448 6.63304 12.4844 6.84138L18.4578 12.8164V12.8148ZM18.7484 8.68669C18.6418 8.07395 18.4689 7.47461 18.2328 6.89919C17.6574 6.66314 17.0581 6.49025 16.4453 6.38356L18.7484 8.68669Z" fill="black" fill-opacity="0.7"/>
</svg>
