<svg width="26" height="17" viewBox="0 0 26 17" fill="none" xmlns="http://www.w3.org/2000/svg">
<path fill-rule="evenodd" clip-rule="evenodd" d="M4.60547 8.29096L7.68359 11.3691C7.79873 11.4764 7.89108 11.6057 7.95513 11.7495C8.01918 11.8932 8.05362 12.0484 8.05639 12.2058C8.05917 12.3631 8.03022 12.5194 7.97129 12.6653C7.91235 12.8112 7.82462 12.9438 7.71334 13.0551C7.60206 13.1664 7.46951 13.2541 7.32359 13.313C7.17767 13.372 7.02138 13.4009 6.86403 13.3981C6.70668 13.3954 6.5515 13.3609 6.40775 13.2969C6.264 13.2328 6.13463 13.1405 6.02734 13.0253L0.949219 7.94721L0.121094 7.11908L0.949219 6.29096L6.02734 1.21283C6.24949 1.00583 6.54331 0.893141 6.84691 0.898498C7.15051 0.903855 7.44017 1.02684 7.65488 1.24155C7.86959 1.45626 7.99257 1.74592 7.99793 2.04952C8.00329 2.35311 7.89059 2.64694 7.68359 2.86908L4.60547 5.94721H20.043C21.3898 5.94721 22.6814 6.48222 23.6337 7.43456C24.5861 8.38689 25.1211 9.67853 25.1211 11.0253C25.1211 12.3721 24.5861 13.6638 23.6337 14.6161C22.6814 15.5684 21.3898 16.1035 20.043 16.1035H16.918C16.6072 16.1035 16.3091 15.98 16.0893 15.7602C15.8696 15.5405 15.7461 15.2424 15.7461 14.9316C15.7461 14.6208 15.8696 14.3227 16.0893 14.1029C16.3091 13.8832 16.6072 13.7597 16.918 13.7597H20.043C20.7682 13.7597 21.4637 13.4716 21.9765 12.9588C22.4893 12.446 22.7773 11.7505 22.7773 11.0253C22.7773 10.3001 22.4893 9.60463 21.9765 9.09184C21.4637 8.57904 20.7682 8.29096 20.043 8.29096H4.60547Z" fill="black" fill-opacity="0.7"/>
</svg>
