<svg width="32" height="23" viewBox="0 0 32 23" fill="none" xmlns="http://www.w3.org/2000/svg">
<path d="M5.5 8.4681C5.5 10.1425 8.18629 11.5 11.5 11.5V8.4681C11.5 6.97681 11.5 6.23117 10.9038 5.77628C10.3076 5.32138 9.7165 5.49152 8.53438 5.83181C6.72204 6.35353 5.5 7.3387 5.5 8.4681Z" stroke="black" stroke-width="1.5" stroke-linejoin="round"/>
<path d="M22 6.25C22 9.1495 17.299 11.5 11.5 11.5C5.70102 11.5 1 9.1495 1 6.25C1 3.3505 5.70102 1 11.5 1C17.299 1 22 3.3505 22 6.25Z" stroke="black" stroke-width="1.5"/>
<path d="M1 7V17.0001C1 19.7614 5.70102 22 11.5 22H28C29.4142 22 30.1213 22 30.5606 21.5606C31 21.1213 31 20.4142 31 19V14.5C31 13.0858 31 12.3787 30.5606 11.9394C30.1213 11.5 29.4142 11.5 28 11.5H11.5" stroke="black" stroke-width="1.5"/>
<path d="M25 22V19M19 22V19M13 22V19M7 21.25V18.25" stroke="black" stroke-width="1.5" stroke-linecap="round" stroke-linejoin="round"/>
</svg>
