<svg width="26" height="30" viewBox="0 0 26 30" fill="none" xmlns="http://www.w3.org/2000/svg">
<path d="M25.1001 11.0001C25.1001 4.89985 19.6547 0 13 0C6.34532 0 0.899902 4.94902 0.899902 11.0001C0.899902 15.2007 3.70448 18.9002 7.5005 20.7506L6.3994 30L13 26.0001L19.6006 30L18.501 20.7493C22.3496 18.9002 25.1001 15.1994 25.1001 11.0001ZM13 20.9992C11.5552 20.9997 10.1245 20.7414 8.78959 20.239C7.45468 19.7367 6.24176 19.0001 5.22015 18.0713C4.19854 17.1426 3.38828 16.0399 2.83566 14.8264C2.28304 13.6128 1.99891 12.3122 1.9995 10.9987C1.9995 5.44884 6.9492 0.99827 13 0.99827C19.0508 0.99827 24.0005 5.498 24.0005 10.9987C24.0057 12.3133 23.7246 13.6158 23.1737 14.8313C22.6227 16.0467 21.8126 17.151 20.79 18.0806C19.7675 19.0101 18.5528 19.7466 17.2158 20.2475C15.8788 20.7484 14.4461 21.0039 13 20.9992ZM17.9497 6.89913L19.5991 8.39858L12.1738 15.1489L8.0503 11.3989L9.6997 9.8994L12.1753 12.1499L17.9497 6.89913Z" fill="black"/>
</svg>
