<svg width="71" height="70" viewBox="0 0 71 70" fill="none" xmlns="http://www.w3.org/2000/svg">
<g clip-path="url(#clip0_69_57)">
<path d="M33.2441 45.3906C35.5456 46.3021 37.6419 47.5098 39.5332 49.0137C41.4245 50.5176 43.0423 52.2607 44.3867 54.2432C45.7311 56.2256 46.7679 58.3561 47.4971 60.6348C48.2262 62.9134 48.6022 65.306 48.625 67.8125V70H44.25V67.8125C44.25 65.1009 43.7373 62.5488 42.7119 60.1562C41.6865 57.7637 40.2738 55.6787 38.4736 53.9014C36.6735 52.124 34.5885 50.7227 32.2188 49.6973C29.849 48.6719 27.2969 48.1478 24.5625 48.125C21.8509 48.125 19.2988 48.6377 16.9062 49.6631C14.5137 50.6885 12.4287 52.1012 10.6514 53.9014C8.87402 55.7015 7.47266 57.7865 6.44727 60.1562C5.42187 62.526 4.89779 65.0781 4.875 67.8125V70H0.5L0.5 67.8125C0.5 65.3288 0.864583 62.9362 1.59375 60.6348C2.32292 58.3333 3.37109 56.2028 4.73828 54.2432C6.10547 52.2835 7.72331 50.5518 9.5918 49.0479C11.4603 47.5439 13.5566 46.3249 15.8809 45.3906C14.8555 44.6842 13.9326 43.8639 13.1123 42.9297C12.292 41.9954 11.597 40.9928 11.0273 39.9219C10.4577 38.8509 10.0247 37.7116 9.72852 36.5039C9.43229 35.2962 9.27279 34.0658 9.25 32.8125C9.25 30.6934 9.64876 28.7109 10.4463 26.8652C11.2438 25.0195 12.3376 23.4017 13.7275 22.0117C15.1175 20.6217 16.7354 19.528 18.5811 18.7305C20.4268 17.9329 22.4206 17.5228 24.5625 17.5C26.6816 17.5 28.6641 17.8988 30.5098 18.6963C32.3555 19.4938 33.9733 20.5876 35.3633 21.9775C36.7533 23.3675 37.847 24.9854 38.6445 26.8311C39.4421 28.6768 39.8522 30.6706 39.875 32.8125C39.875 34.0658 39.7269 35.2848 39.4307 36.4697C39.1344 37.6546 38.6901 38.7939 38.0977 39.8877C37.5052 40.9814 36.8102 41.9954 36.0127 42.9297C35.2152 43.8639 34.2923 44.6842 33.2441 45.3906ZM24.5625 43.75C26.0664 43.75 27.4792 43.4652 28.8008 42.8955C30.1224 42.3258 31.2731 41.5511 32.2529 40.5713C33.2327 39.5915 34.0189 38.4294 34.6113 37.085C35.2038 35.7406 35.5 34.3164 35.5 32.8125C35.5 31.3086 35.2152 29.8958 34.6455 28.5742C34.0758 27.2526 33.2897 26.1019 32.2871 25.1221C31.2845 24.1423 30.1224 23.3561 28.8008 22.7637C27.4792 22.1712 26.0664 21.875 24.5625 21.875C23.0586 21.875 21.6458 22.1598 20.3242 22.7295C19.0026 23.2992 17.8405 24.0853 16.8379 25.0879C15.8353 26.0905 15.0492 27.2526 14.4795 28.5742C13.9098 29.8958 13.625 31.3086 13.625 32.8125C13.625 34.3164 13.9098 35.7292 14.4795 37.0508C15.0492 38.3724 15.8239 39.5345 16.8037 40.5371C17.7835 41.5397 18.9456 42.3258 20.29 42.8955C21.6344 43.4652 23.0586 43.75 24.5625 43.75ZM70.5 0V35L61.75 35L48.625 48.125V35H44.25V30.625H53V37.5635L59.9385 30.625H66.125V4.375L22.375 4.375V12.2363C21.6458 12.3275 20.9167 12.4414 20.1875 12.5781C19.4583 12.7148 18.7292 12.9199 18 13.1934V0L70.5 0Z" fill="#FF0D0D"/>
</g>
<defs>
<clipPath id="clip0_69_57">
<rect width="70" height="70" fill="white" transform="translate(0.5)"/>
</clipPath>
</defs>
</svg>
