<svg width="71" height="70" viewBox="0 0 71 70" fill="none" xmlns="http://www.w3.org/2000/svg">
<path d="M6.33333 8.74996V7.29163C5.94656 7.29163 5.57563 7.44527 5.30214 7.71876C5.02865 7.99225 4.875 8.36319 4.875 8.74996H6.33333ZM38.4167 8.74996H39.875C39.875 8.36319 39.7214 7.99225 39.4479 7.71876C39.1744 7.44527 38.8034 7.29163 38.4167 7.29163V8.74996ZM38.4167 26.25V24.7916C38.0299 24.7916 37.659 24.9453 37.3855 25.2188C37.112 25.4923 36.9583 25.8632 36.9583 26.25H38.4167ZM6.33333 10.2083L38.4167 10.2083V7.29163L6.33333 7.29163V10.2083ZM36.9583 8.74996V55.4166H39.875V8.74996H36.9583ZM7.79167 49.5833L7.79167 8.74996H4.875L4.875 49.5833H7.79167ZM38.4167 27.7083H53V24.7916H38.4167V27.7083ZM63.2083 37.9166V49.5833H66.125V37.9166H63.2083ZM39.875 55.4166V26.25H36.9583V55.4166H39.875ZM56.0917 58.5083C55.2714 59.3276 54.1594 59.7878 53 59.7878C51.8406 59.7878 50.7286 59.3276 49.9083 58.5083L47.8433 60.5733C48.5205 61.2506 49.3244 61.7879 50.2092 62.1544C51.0939 62.521 52.0423 62.7097 53 62.7097C53.9577 62.7097 54.9061 62.521 55.7908 62.1544C56.6756 61.7879 57.4795 61.2506 58.1567 60.5733L56.0917 58.5083ZM49.9083 52.325C50.7286 51.5057 51.8406 51.0455 53 51.0455C54.1594 51.0455 55.2714 51.5057 56.0917 52.325L58.1567 50.26C57.4795 49.5827 56.6756 49.0454 55.7908 48.6788C54.9061 48.3123 53.9577 48.1236 53 48.1236C52.0423 48.1236 51.0939 48.3123 50.2092 48.6788C49.3244 49.0454 48.5205 49.5827 47.8433 50.26L49.9083 52.325ZM21.0917 58.5083C20.2714 59.3276 19.1594 59.7878 18 59.7878C16.8406 59.7878 15.7286 59.3276 14.9083 58.5083L12.8433 60.5733C13.5205 61.2506 14.3244 61.7879 15.2092 62.1544C16.0939 62.521 17.0423 62.7097 18 62.7097C18.9577 62.7097 19.9061 62.521 20.7908 62.1544C21.6756 61.7879 22.4795 61.2506 23.1567 60.5733L21.0917 58.5083ZM14.9083 52.325C15.7286 51.5057 16.8406 51.0455 18 51.0455C19.1594 51.0455 20.2714 51.5057 21.0917 52.325L23.1567 50.26C22.4795 49.5827 21.6756 49.0454 20.7908 48.6788C19.9061 48.3123 18.9577 48.1236 18 48.1236C17.0423 48.1236 16.0939 48.3123 15.2092 48.6788C14.3244 49.0454 13.5205 49.5827 12.8433 50.26L14.9083 52.325ZM56.0917 52.325C56.9492 53.1766 57.375 54.2937 57.375 55.4166H60.2917C60.2917 53.5529 59.58 51.6833 58.1567 50.26L56.0917 52.325ZM57.375 55.4166C57.375 56.5395 56.9492 57.6566 56.0917 58.5083L58.1567 60.5733C58.8345 59.8966 59.372 59.0928 59.7384 58.2079C60.1048 57.323 60.2928 56.3744 60.2917 55.4166H57.375ZM47.1667 53.9583H38.4167V56.875H47.1667V53.9583ZM49.9083 58.5083C49.5012 58.103 49.1782 57.6212 48.9579 57.0906C48.7377 56.56 48.6245 55.9911 48.625 55.4166H45.7083C45.7083 57.2804 46.42 59.15 47.8433 60.5733L49.9083 58.5083ZM48.625 55.4166C48.625 54.2937 49.0508 53.1766 49.9083 52.325L47.8433 50.26C47.1655 50.9366 46.628 51.7405 46.2616 52.6254C45.8952 53.5103 45.7072 54.4589 45.7083 55.4166H48.625ZM14.9083 58.5083C14.5012 58.103 14.1782 57.6212 13.9579 57.0906C13.7377 56.56 13.6245 55.9911 13.625 55.4166H10.7083C10.7083 57.2804 11.42 59.15 12.8433 60.5733L14.9083 58.5083ZM13.625 55.4166C13.625 54.2937 14.0508 53.1766 14.9083 52.325L12.8433 50.26C12.1655 50.9366 11.628 51.7405 11.2616 52.6254C10.8952 53.5103 10.7072 54.4589 10.7083 55.4166H13.625ZM38.4167 53.9583H23.8333V56.875H38.4167V53.9583ZM21.0917 52.325C21.9492 53.1766 22.375 54.2937 22.375 55.4166H25.2917C25.2917 53.5529 24.58 51.6833 23.1567 50.26L21.0917 52.325ZM22.375 55.4166C22.375 56.5395 21.9492 57.6566 21.0917 58.5083L23.1567 60.5733C23.8345 59.8966 24.372 59.0928 24.7384 58.2079C25.1048 57.323 25.2928 56.3744 25.2917 55.4166H22.375ZM63.2083 49.5833C63.2083 50.7436 62.7474 51.8564 61.9269 52.6769C61.1065 53.4974 59.9937 53.9583 58.8333 53.9583V56.875C60.7672 56.875 62.6219 56.1067 63.9893 54.7393C65.3568 53.3718 66.125 51.5172 66.125 49.5833H63.2083ZM53 27.7083C55.7074 27.7083 58.304 28.7838 60.2184 30.6982C62.1328 32.6127 63.2083 35.2092 63.2083 37.9166H66.125C66.125 34.4357 64.7422 31.0973 62.2808 28.6359C59.8194 26.1744 56.481 24.7916 53 24.7916V27.7083ZM4.875 49.5833C4.875 51.5172 5.64323 53.3718 7.01068 54.7393C8.37813 56.1067 10.2328 56.875 12.1667 56.875V53.9583C11.0063 53.9583 9.89355 53.4974 9.07307 52.6769C8.2526 51.8564 7.79167 50.7436 7.79167 49.5833H4.875Z" fill="#FF0000"/>
<path d="M6.33333 23.3333H15.0833M6.33333 34.9999H20.9167" stroke="#FF0000" stroke-width="1.25" stroke-linecap="round" stroke-linejoin="round"/>
</svg>
