<svg width="70" height="55" viewBox="0 0 70 55" fill="none" xmlns="http://www.w3.org/2000/svg">
<path d="M69.8 26.525L62.3 9.025C62.1086 8.57313 61.7885 8.18758 61.3795 7.9164C60.9705 7.64522 60.4907 7.5004 60 7.5H52.5V2.5C52.5 1.83696 52.2366 1.20107 51.7678 0.732234C51.2989 0.263393 50.663 0 50 0H2.5C1.83696 0 1.20107 0.263393 0.732233 0.732234C0.263392 1.20107 0 1.83696 0 2.5V45C0 45.663 0.263392 46.2989 0.732233 46.7678C1.20107 47.2366 1.83696 47.5 2.5 47.5H7.85C8.42571 49.6184 9.6825 51.4885 11.4265 52.8218C13.1705 54.1551 15.3047 54.8775 17.5 54.8775C19.6953 54.8775 21.8295 54.1551 23.5735 52.8218C25.3175 51.4885 26.5743 49.6184 27.15 47.5H42.85C43.4257 49.6184 44.6825 51.4885 46.4265 52.8218C48.1705 54.1551 50.3047 54.8775 52.5 54.8775C54.6953 54.8775 56.8295 54.1551 58.5735 52.8218C60.3175 51.4885 61.5743 49.6184 62.15 47.5H67.5C68.163 47.5 68.7989 47.2366 69.2678 46.7678C69.7366 46.2989 70 45.663 70 45V27.5C69.9994 27.1649 69.9313 26.8333 69.8 26.525ZM52.5 12.5H58.35L63.7 25H52.5V12.5ZM17.5 50C16.5111 50 15.5444 49.7068 14.7221 49.1573C13.8999 48.6079 13.259 47.827 12.8806 46.9134C12.5022 45.9998 12.4031 44.9945 12.5961 44.0245C12.789 43.0546 13.2652 42.1637 13.9645 41.4645C14.6637 40.7652 15.5546 40.289 16.5245 40.0961C17.4945 39.9031 18.4998 40.0022 19.4134 40.3806C20.327 40.759 21.1079 41.3999 21.6573 42.2221C22.2068 43.0444 22.5 44.0111 22.5 45C22.5 46.3261 21.9732 47.5979 21.0355 48.5355C20.0979 49.4732 18.8261 50 17.5 50ZM42.85 42.5H27.15C26.5743 40.3816 25.3175 38.5115 23.5735 37.1782C21.8295 35.8449 19.6953 35.1225 17.5 35.1225C15.3047 35.1225 13.1705 35.8449 11.4265 37.1782C9.6825 38.5115 8.42571 40.3816 7.85 42.5H5V5H47.5V36.4C46.3616 37.0607 45.3648 37.9397 44.5669 38.9864C43.7689 40.0332 43.1855 41.2272 42.85 42.5ZM52.5 50C51.5111 50 50.5444 49.7068 49.7221 49.1573C48.8999 48.6079 48.259 47.827 47.8806 46.9134C47.5022 45.9998 47.4031 44.9945 47.5961 44.0245C47.789 43.0546 48.2652 42.1637 48.9645 41.4645C49.6637 40.7652 50.5546 40.289 51.5245 40.0961C52.4945 39.9031 53.4998 40.0022 54.4134 40.3806C55.327 40.759 56.1079 41.3999 56.6573 42.2221C57.2068 43.0444 57.5 44.0111 57.5 45C57.5 46.3261 56.9732 47.5979 56.0355 48.5355C55.0979 49.4732 53.8261 50 52.5 50ZM65 42.5H62.15C61.5972 40.3588 60.3502 38.4613 58.6041 37.1042C56.858 35.7472 54.7114 35.0072 52.5 35V30H65V42.5Z" fill="black"/>
</svg>
