<svg width="80" height="80" viewBox="0 0 80 80" fill="none" xmlns="http://www.w3.org/2000/svg">
<path d="M37.66 7.31677C38.9754 6.82461 40.4126 6.76045 41.7667 7.13344L42.34 7.31677L65.6733 16.0668C66.8564 16.5104 67.8891 17.2811 68.651 18.2891C69.4129 19.2971 69.8726 20.5009 69.9767 21.7601L70 22.3101V40.1868C69.9999 45.5882 68.5414 50.8894 65.7787 55.5307C63.0159 60.1721 59.0513 63.9815 54.3033 66.5568L53.4167 67.0201L42.2367 72.6101C41.6211 72.9175 40.9487 73.0945 40.2616 73.13C39.5744 73.1656 38.8874 73.0589 38.2433 72.8168L37.7633 72.6101L26.5833 67.0201C21.752 64.6044 17.6626 60.9291 14.7467 56.3822C11.8308 51.8352 10.1966 46.5854 10.0167 41.1868L10 40.1868V22.3101C10 21.0472 10.3588 19.8103 11.0344 18.7433C11.7101 17.6764 12.675 16.8233 13.8167 16.2834L14.3267 16.0668L37.66 7.31677ZM40 13.5601L16.6667 22.3101V40.1868C16.6668 44.3701 17.7915 48.4765 19.9232 52.076C22.0549 55.6756 25.115 58.6358 28.7833 60.6468L29.5667 61.0568L40 66.2734L50.4333 61.0568C54.1758 59.1859 57.3463 56.3432 59.6129 52.8263C61.8795 49.3094 63.1587 45.2478 63.3167 41.0668L63.3333 40.1868V22.3101L40 13.5601ZM37.1433 27.1734C37.5806 26.4434 38.2805 25.9082 39.0996 25.6776C39.9187 25.447 40.795 25.5383 41.5489 25.933C42.3028 26.3276 42.8772 26.9957 43.1544 27.8002C43.4317 28.6047 43.3907 29.4848 43.04 30.2601L42.8567 30.6034L39.2233 36.6701H46.6067C49.0933 36.6701 50.6767 39.2434 49.6733 41.4268L49.4933 41.7668L42.86 52.8268C42.4266 53.5647 41.726 54.1076 40.9033 54.3431C40.0806 54.5787 39.1988 54.4888 38.4406 54.0921C37.6823 53.6954 37.1057 53.0223 36.8301 52.2122C36.5545 51.402 36.601 50.5169 36.96 49.7401L37.1433 49.3968L40.7767 43.3334H33.3933C32.8303 43.3335 32.2762 43.1923 31.7818 42.9229C31.2874 42.6534 30.8685 42.2643 30.5634 41.791C30.2583 41.3178 30.0768 40.7756 30.0354 40.2141C29.9941 39.6525 30.0942 39.0896 30.3267 38.5768L30.5067 38.2334L37.1433 27.1734Z" fill="black"/>
</svg>
