<svg width="62" height="62" viewBox="0 0 62 62" fill="none" xmlns="http://www.w3.org/2000/svg">
<path d="M39.57 41.0132L42.43 47.1632C42.43 47.1632 55.2867 49.8932 55.2867 56.3865C55.2867 60.9998 49.5667 60.9999 49.5667 60.9999H34.3333L26.8333 56.8332" stroke="black" stroke-width="1.875" stroke-linecap="round" stroke-linejoin="round"/>
<path d="M22.43 41.0132L19.5733 47.1632C19.5733 47.1632 6.71335 49.8932 6.71335 56.3865C6.71335 60.9998 12.4333 60.9999 12.4333 60.9999H19.3333L26.8333 56.8332L36 50.9999" stroke="black" stroke-width="1.875" stroke-linecap="round" stroke-linejoin="round"/>
<path d="M1 44.0867C1 44.0867 8.14333 42.55 12.43 41.0133C16.7133 19.4867 29.5667 21.0233 31 21.0233C32.43 21.0233 45.2867 19.4867 49.57 41.0133C53.8567 42.5467 61 44.0867 61 44.0867M31 14.3333C32.7681 14.3333 34.4638 13.631 35.714 12.3807C36.9643 11.1305 37.6667 9.43478 37.6667 7.66667C37.6667 5.89856 36.9643 4.20286 35.714 2.95262C34.4638 1.70238 32.7681 1 31 1C29.2319 1 27.5362 1.70238 26.286 2.95262C25.0357 4.20286 24.3333 5.89856 24.3333 7.66667C24.3333 9.43478 25.0357 11.1305 26.286 12.3807C27.5362 13.631 29.2319 14.3333 31 14.3333Z" stroke="black" stroke-width="1.875" stroke-linecap="round" stroke-linejoin="round"/>
</svg>
