<svg width="32" height="23" viewBox="0 0 32 23" fill="none" xmlns="http://www.w3.org/2000/svg">
<path d="M5.50005 8.46797C5.50005 10.1424 8.18634 11.4999 11.5 11.4999V8.46797C11.5 6.97669 11.5 6.23105 10.9038 5.77616C10.3076 5.32126 9.71655 5.4914 8.53443 5.83169C6.72208 6.35341 5.50005 7.33858 5.50005 8.46797Z" stroke="black" stroke-width="1.5" stroke-linejoin="round"/>
<path d="M22 6.25C22 9.1495 17.299 11.5 11.5 11.5C5.70105 11.5 1.00003 9.1495 1.00003 6.25C1.00003 3.3505 5.70105 1 11.5 1C17.299 1 22 3.3505 22 6.25Z" stroke="black" stroke-width="1.5"/>
<path d="M1.00003 7.00012V17.0002C1.00003 19.7615 5.70105 22.0001 11.5 22.0001H28C29.4142 22.0001 30.1213 22.0001 30.5607 21.5608C31 21.1214 31 20.4143 31 19.0001V14.5001C31 13.0859 31 12.3788 30.5607 11.9395C30.1213 11.5001 29.4142 11.5001 28 11.5001H11.5" stroke="black" stroke-width="1.5"/>
<path d="M25 22V19M19 22V19M13 22V19M7.00002 21.25V18.25" stroke="black" stroke-width="1.5" stroke-linecap="round" stroke-linejoin="round"/>
</svg>
