<svg width="26" height="30" viewBox="0 0 26 30" fill="none" xmlns="http://www.w3.org/2000/svg">
<path d="M25.1006 11.0001C25.1006 4.89985 19.6552 0 13.0005 0C6.34581 0 0.900391 4.94902 0.900391 11.0001C0.900391 15.2007 3.70497 18.9002 7.50099 20.7506L6.39989 30L13.0005 26.0001L19.6011 30L18.5015 20.7493C22.3501 18.9002 25.1006 15.1994 25.1006 11.0001ZM13.0005 20.9992C11.5557 20.9997 10.125 20.7414 8.79008 20.239C7.45517 19.7367 6.24225 19.0001 5.22064 18.0713C4.19903 17.1426 3.38876 16.0399 2.83615 14.8264C2.28353 13.6128 1.9994 12.3122 1.99999 10.9987C1.99999 5.44884 6.94969 0.99827 13.0005 0.99827C19.0513 0.99827 24.001 5.498 24.001 10.9987C24.0062 12.3133 23.7251 13.6158 23.1741 14.8313C22.6231 16.0467 21.813 17.151 20.7905 18.0806C19.768 19.0101 18.5533 19.7466 17.2163 20.2475C15.8793 20.7484 14.4465 21.0039 13.0005 20.9992ZM17.9502 6.89913L19.5996 8.39858L12.1743 15.1489L8.05079 11.3989L9.70019 9.8994L12.1758 12.1499L17.9502 6.89913Z" fill="black"/>
</svg>
