<svg width="32" height="32" viewBox="0 0 32 32" fill="none" xmlns="http://www.w3.org/2000/svg">
<path d="M22.4704 3.92386C22.2589 3.32578 21.9139 2.76438 21.4355 2.28591C19.7209 0.571364 16.9411 0.571364 15.2266 2.28591C14.8627 2.64982 14.576 3.06171 14.3666 3.50121C13.901 4.47808 12.7336 5.3656 11.6559 5.4635C10.5045 5.56811 9.38169 6.06115 8.50022 6.94261C6.49993 8.94291 6.49993 12.186 8.50022 14.1863C9.06378 14.7499 9.72599 15.1547 10.4313 15.4007M22.4704 3.92386C23.0165 5.46898 22.6715 7.25875 21.4355 8.49483M22.4704 3.92386C22.6817 3.32578 23.0267 2.76438 23.5051 2.28591C25.2197 0.571364 27.9995 0.571364 29.714 2.28591C31.4287 4.00046 31.4287 6.78029 29.714 8.49483C29.2537 8.95527 29.2537 10.104 29.714 10.5645C31.4287 12.279 31.4287 15.0589 29.714 16.7734C28.7573 17.7302 27.4687 18.1531 26.2186 18.0419M10.4313 15.4007C10.3002 15.5048 10.1736 15.6173 10.0525 15.7385C8.3379 17.4532 8.3379 20.233 10.0525 21.9475C11.767 23.6621 14.5468 23.6621 16.2614 21.9475C16.4171 21.7918 16.6972 21.8393 16.7902 22.0391C17.0362 22.5679 17.3773 23.0635 17.8136 23.4997C19.8139 25.5001 23.057 25.5001 25.0574 23.4997C26.533 22.0241 26.92 19.8724 26.2186 18.0419M10.4313 15.4007C12.1547 14.0326 14.668 14.1452 16.2614 15.7385M26.2186 18.0419C25.2287 17.954 24.2629 17.5312 23.5051 16.7734C23.1422 16.4105 22.8562 16 22.6469 15.562" stroke="black" stroke-width="1.5" stroke-linecap="round" stroke-linejoin="round"/>
<path d="M1 31L9.99999 22" stroke="black" stroke-width="1.5" stroke-linecap="round"/>
</svg>
