<svg width="151" height="150" viewBox="0 0 151 150" fill="none" xmlns="http://www.w3.org/2000/svg">
<path d="M33.5792 37.5C24.4831 47.6591 19.3904 60.7785 19.2501 74.414C18.9044 105.571 44.3428 131.191 75.5001 131.25C106.613 131.309 131.75 106.104 131.75 75C131.75 44.373 107.273 19.4502 76.8184 18.75C76.647 18.7445 76.4762 18.7735 76.3163 18.8355C76.1564 18.8974 76.0105 18.9908 75.8875 19.1103C75.7645 19.2298 75.6668 19.3728 75.6002 19.5309C75.5336 19.6889 75.4996 19.8588 75.5001 20.0303V44.5312" stroke="black" stroke-width="15" stroke-linecap="round" stroke-linejoin="round"/>
<path d="M68.8731 81.6299L45.7286 48.5244C45.4084 48.0658 45.2599 47.509 45.309 46.9518C45.3582 46.3946 45.6019 45.8724 45.9974 45.4769C46.393 45.0813 46.9151 44.8376 47.4723 44.7885C48.0296 44.7393 48.5863 44.8878 49.045 45.208L82.1505 68.3526C84.1811 69.815 85.5543 72.0181 85.9731 74.4852C86.3919 76.9524 85.8226 79.4852 84.3884 81.5358C82.9542 83.5865 80.7703 84.9901 78.3093 85.443C75.8482 85.8959 73.3077 85.3618 71.2374 83.9561C70.322 83.3217 69.5223 82.5349 68.8731 81.6299Z" fill="black"/>
</svg>
