<svg width="80" height="80" viewBox="0 0 80 80" fill="none" xmlns="http://www.w3.org/2000/svg">
<g clip-path="url(#clip0_69_24)">
<path d="M47.5425 79.9802C24.8212 79.9802 24.6463 79.0379 21.8326 76.9191C20.3401 75.7966 17.5239 75.0191 7.23764 74.3491C6.49139 74.3003 5.78139 74.0141 5.30522 73.4366C5.08647 73.1703 -0.0535278 65.6741 -0.0535278 53.6678C-0.0535278 41.8366 3.62522 36.444 3.78264 36.194C4.00707 35.8344 4.31932 35.5379 4.68998 35.3323C5.06065 35.1268 5.47754 35.0189 5.90139 35.019C14.3476 35.019 26.0564 24.2377 33.9276 5.41773C35.2889 2.16273 35.5701 0.0214844 40.5701 0.0214844C43.4139 0.0214844 46.6014 2.05773 48.1751 4.67031C51.4039 10.0078 49.7638 21.4716 48.2476 27.5979C53.4038 27.5566 62.7376 27.4866 67.1788 27.4866C73.3563 27.4866 77.445 31.1703 77.5687 36.5553C77.6101 38.3328 77.3762 40.6028 76.8625 41.7778C78.2225 43.1341 79.9763 45.1791 80.0525 47.8128C80.1475 51.2128 77.9212 53.8015 76.5 55.2865C76.8262 56.2752 77.4787 57.5865 77.4148 59.1541C77.2586 63.0091 74.2824 65.4928 72.4287 66.789C72.5824 67.844 72.7024 69.834 72.3637 71.3727C71.0262 77.5141 62.0199 79.9803 47.5424 79.9803L47.5425 79.9802ZM8.56382 69.2791C17.5238 70.0205 22.3137 71.0241 24.8399 72.9254C26.7949 74.3979 26.4937 74.9816 47.5424 74.9816C53.9624 74.9816 66.5187 74.7141 67.4812 70.3066C67.8637 68.5441 66.005 66.8117 65.9987 66.798C65.4912 65.5455 66.0562 64.0754 67.2937 63.5341C67.3137 63.5241 72.3049 61.7367 72.4187 58.9466C72.4937 57.163 71.2687 56.0917 71.2412 56.0466C70.5125 54.9167 70.7787 53.3667 71.8837 52.5966C71.8962 52.5866 75.1299 50.6267 75.0512 47.9542C74.9899 45.8317 72.1937 44.3379 72.1087 44.288C71.4837 43.9305 71.0287 43.3117 70.8862 42.6042C70.7462 41.898 70.9037 41.1567 71.3424 40.583C71.3424 40.583 72.6137 38.563 72.5674 36.668C72.4762 32.6117 68.1137 32.4842 67.1774 32.4842C60.8712 32.4842 44.6751 32.548 44.6751 32.548C43.8013 32.5517 43.0451 32.1392 42.5751 31.4405C42.1063 30.7416 42.0713 29.8742 42.3463 29.0792C44.7887 22.0455 46.1526 11.0105 43.8875 7.24047C43.22 6.12922 43.0675 5.01922 40.5675 5.01922C40.2212 5.01922 39.3963 5.29297 38.5363 7.34297C30.1826 27.3305 17.7051 38.8917 7.48507 39.9342C6.60382 41.9442 4.94632 46.1092 4.94632 53.6666C4.94632 61.3805 7.38999 67.3479 8.56382 69.2791Z" fill="black"/>
</g>
<defs>
<clipPath id="clip0_69_24">
<rect width="80" height="80" fill="white"/>
</clipPath>
</defs>
</svg>
