<svg width="32" height="23" viewBox="0 0 32 23" fill="none" xmlns="http://www.w3.org/2000/svg">
<path d="M5.5 8.46803C5.5 10.1424 8.18629 11.4999 11.5 11.4999V8.46803C11.5 6.97675 11.5 6.23111 10.9038 5.77622C10.3076 5.32132 9.7165 5.49146 8.53438 5.83175C6.72204 6.35347 5.5 7.33864 5.5 8.46803Z" stroke="black" stroke-width="1.5" stroke-linejoin="round"/>
<path d="M22 6.25C22 9.1495 17.299 11.5 11.5 11.5C5.70102 11.5 1 9.1495 1 6.25C1 3.3505 5.70102 1 11.5 1C17.299 1 22 3.3505 22 6.25Z" stroke="black" stroke-width="1.5"/>
<path d="M1 7.00006V17.0001C1 19.7615 5.70102 22.0001 11.5 22.0001H28C29.4142 22.0001 30.1213 22.0001 30.5606 21.5607C31 21.1214 31 20.4143 31 19.0001V14.5001C31 13.0859 31 12.3788 30.5606 11.9394C30.1213 11.5001 29.4142 11.5001 28 11.5001H11.5" stroke="black" stroke-width="1.5"/>
<path d="M25 22V19M19 22V19M13 22V19M7 21.25V18.25" stroke="black" stroke-width="1.5" stroke-linecap="round" stroke-linejoin="round"/>
</svg>
