<svg width="11" height="11" viewBox="0 0 11 11" fill="none" xmlns="http://www.w3.org/2000/svg">
<path d="M9.18078 9.52872C9.39162 9.73955 9.71703 9.41413 9.5062 9.20788L7.78745 7.48455C8.39035 6.81745 8.72362 5.94997 8.72245 5.0508C8.72245 3.03872 7.0862 1.40247 5.07411 1.40247C3.06203 1.40247 1.42578 3.03872 1.42578 5.0508C1.42578 7.06288 3.06203 8.69913 5.07411 8.69913C5.98162 8.69913 6.82036 8.36455 7.46203 7.80997L9.18078 9.52872ZM1.88366 5.0508C1.88366 3.2908 3.31824 1.8608 5.07366 1.8608C6.83366 1.8608 8.26366 3.2908 8.26366 5.0508C8.26366 6.8108 6.83366 8.2408 5.07366 8.2408C3.31824 8.2408 1.88366 6.8108 1.88366 5.0508Z" fill="black"/>
</svg>
