<svg width="32" height="32" viewBox="0 0 32 32" fill="none" xmlns="http://www.w3.org/2000/svg">
<path d="M21.0464 21.3536L21.4 21.7071L21.7536 21.3536L23.3536 19.7536L23.7071 19.4L23.3536 19.0464L18.2732 13.9661L22.8873 8.31627L23.1872 7.949L22.8363 7.63003L21.7363 6.63003L21.3836 6.30933L21.0464 6.64645L16 11.6929L10.9536 6.64645L10.6 6.29289L10.2464 6.64645L8.64645 8.24645L8.29289 8.6L8.64645 8.95355L13.6929 14L8.64645 19.0464L8.29289 19.4L8.64645 19.7536L10.2464 21.3536L10.6 21.7071L10.9536 21.3536L16 16.3071L21.0464 21.3536ZM2.5 14C2.5 6.47614 8.47614 0.5 16 0.5C23.5239 0.5 29.5 6.47614 29.5 14C29.5 21.5239 23.5239 27.5 16 27.5C8.47614 27.5 2.5 21.5239 2.5 14Z" fill="black" stroke="white"/>
</svg>
