<svg width="6" height="11" viewBox="0 0 6 11" fill="none" xmlns="http://www.w3.org/2000/svg">
<path d="M5.36094 1.12463C5.48983 1.25356 5.56223 1.42839 5.56223 1.61069C5.56223 1.79299 5.48983 1.96783 5.36094 2.09676L1.95782 5.49988L5.36094 8.903C5.48618 9.03267 5.55547 9.20633 5.55391 9.38659C5.55234 9.56685 5.48004 9.73929 5.35257 9.86675C5.2251 9.99422 5.05267 10.0665 4.87241 10.0681C4.69215 10.0697 4.51848 10.0004 4.38882 9.87513L0.49963 5.98594C0.370744 5.85702 0.29834 5.68218 0.29834 5.49988C0.29834 5.31758 0.370744 5.14274 0.49963 5.01382L4.38882 1.12463C4.51774 0.995744 4.69258 0.92334 4.87488 0.92334C5.05718 0.92334 5.23202 0.995744 5.36094 1.12463Z" fill="black"/>
</svg>
